<?xml version="1.0" encoding="UTF-8"?>
<!DOCTYPE svg PUBLIC "-//W3C//DTD SVG 1.1//EN" "http://www.w3.org/Graphics/SVG/1.1/DTD/svg11.dtd">
<svg xmlns="http://www.w3.org/2000/svg" version="1.1" width="400px" height="400px" style="shape-rendering:geometricPrecision; text-rendering:geometricPrecision; image-rendering:optimizeQuality; fill-rule:evenodd; clip-rule:evenodd" xmlns:xlink="http://www.w3.org/1999/xlink">
<g><path style="opacity:1" fill="#fefffe" d="M 136.5,79.5 C 184.56,79.0144 232.56,79.5144 280.5,81C 304.964,121.423 328.798,162.256 352,203.5C 352.667,205.167 352.667,206.833 352,208.5C 329.213,249.91 306.047,291.076 282.5,332C 233.583,333.657 184.583,333.99 135.5,333C 130.437,329.13 129.27,324.296 132,318.5C 152.167,281.5 172.333,244.5 192.5,207.5C 172,169.167 151.5,130.833 131,92.5C 129.571,86.7001 131.404,82.3668 136.5,79.5 Z M 156.5,98.5 C 190.173,98.1668 223.84,98.5001 257.5,99.5C 247.365,116.798 237.032,133.965 226.5,151C 212.258,151.823 198.092,151.656 184,150.5C 174.553,133.271 165.387,115.938 156.5,98.5 Z M 274.5,105.5 C 292.852,135.69 310.852,166.19 328.5,197C 288.167,197.667 247.833,197.667 207.5,197C 202.632,188.292 197.965,179.458 193.5,170.5C 207.488,169.667 221.488,169.167 235.5,169C 236.025,168.308 236.692,167.808 237.5,167.5C 249.856,146.819 262.189,126.152 274.5,105.5 Z M 208.5,215.5 C 247.835,215.333 287.168,215.5 326.5,216C 309.301,245.558 292.468,275.392 276,305.5C 263.043,286.419 250.209,267.253 237.5,248C 222.259,246.698 206.926,246.031 191.5,246C 197.559,236.048 203.226,225.881 208.5,215.5 Z M 181.5,265.5 C 196.848,265.167 212.181,265.501 227.5,266.5C 237.585,282.338 247.918,298.005 258.5,313.5C 224.172,314.667 189.838,314.833 155.5,314C 164.573,298.018 173.24,281.851 181.5,265.5 Z"/></g>
<g><path style="opacity:1" fill="#fefffe" d="M 107.5,91.5 C 118.214,91.2166 121.714,96.2166 118,106.5C 100.136,135.72 82.6356,165.22 65.5,195C 85.1667,195.667 104.833,195.667 124.5,195C 132.758,183.805 140.758,172.471 148.5,161C 155.565,159.361 159.899,162.028 161.5,169C 154.25,180.768 146.916,193.101 139.5,206C 146.533,218.565 153.7,231.065 161,243.5C 161.878,249.636 159.211,253.303 153,254.5C 150.763,253.944 148.763,252.944 147,251.5C 139.274,239.202 131.441,227.036 123.5,215C 104.017,214.014 84.6838,214.348 65.5,216C 83.2075,245.916 101.041,275.749 119,305.5C 120.504,316.333 116.004,320.5 105.5,318C 103.641,316.442 102.141,314.609 101,312.5C 81.2518,278.668 61.2518,245.002 41,211.5C 38.7612,206.168 39.4278,201.168 43,196.5C 62.371,164.39 81.371,132.057 100,99.5C 101.69,95.9791 104.19,93.3124 107.5,91.5 Z"/></g>
</svg>